<?xml version="1.0" standalone="no"?>
<!DOCTYPE svg PUBLIC "-//W3C//DTD SVG 20010904//EN"
 "http://www.w3.org/TR/2001/REC-SVG-20010904/DTD/svg10.dtd">
<svg version="1.0" xmlns="http://www.w3.org/2000/svg"
 width="256.000000pt" height="256.000000pt" viewBox="0 0 256.000000 256.000000"
 preserveAspectRatio="xMidYMid meet">

<g transform="translate(0.000000,256.000000) scale(0.100000,-0.100000)"
fill="#000000" stroke="none">
<path d="M800 2557 c0 -1 22 -69 49 -150 l50 -147 -26 -75 -25 -75 -134 0
-135 0 -200 -151 c-110 -83 -199 -153 -196 -155 2 -2 91 -69 197 -149 l193
-145 138 0 137 0 26 -78 26 -77 -50 -150 c-27 -82 -50 -151 -50 -152 0 -2 56
-3 125 -3 l125 0 0 -236 c0 -221 -1 -236 -17 -229 -35 15 -124 17 -169 5 -48
-14 -129 -79 -153 -123 -13 -24 -16 -25 -85 -20 -64 5 -76 2 -126 -24 -34 -18
-66 -45 -85 -72 -26 -37 -30 -53 -34 -122 l-3 -79 -74 0 -74 0 0 -75 0 -75
1050 0 1050 0 0 75 0 75 -225 0 -225 0 0 123 c0 107 -3 128 -24 172 -29 63
-101 128 -161 145 -44 12 -133 10 -167 -5 -17 -7 -18 8 -18 229 l0 236 233 0
234 0 194 146 c107 80 198 149 203 154 4 4 -81 75 -190 157 l-198 148 -139 5
-140 5 -24 70 -23 69 26 78 26 78 137 0 138 0 194 146 c107 80 195 148 196
152 1 4 -87 73 -196 155 l-198 147 -591 0 c-326 0 -592 -1 -592 -3z m1231
-219 c54 -40 98 -75 98 -78 0 -3 -44 -38 -98 -77 l-98 -73 -462 0 c-253 0
-461 1 -461 3 0 2 11 36 24 75 l25 72 -25 72 c-13 39 -24 73 -24 75 0 2 208 3
461 3 l462 0 98 -72z m-481 -381 c0 -2 -11 -36 -24 -75 l-25 -72 25 -72 c13
-39 24 -73 24 -75 0 -2 -208 -3 -463 -3 l-464 0 -92 69 c-51 38 -93 73 -93 77
-1 5 41 41 93 81 l94 72 463 0 c254 1 462 0 462 -2z m471 -518 c52 -38 98 -74
102 -78 4 -4 -38 -42 -94 -85 l-103 -76 -458 0 c-252 0 -458 4 -458 8 0 5 11
40 23 78 l24 69 -24 69 c-12 39 -23 74 -23 78 0 4 206 8 458 8 l459 0 94 -71z
m-663 -836 l-3 -448 -75 0 -75 0 -3 448 -2 447 80 0 80 0 -2 -447z m-342 -187
l34 -34 0 -116 0 -116 -110 0 -110 0 0 116 0 116 34 34 c28 28 42 34 76 34 34
0 48 -6 76 -34z m680 0 l34 -34 0 -116 0 -116 -110 0 -110 0 0 116 0 116 34
34 c28 28 42 34 76 34 34 0 48 -6 76 -34z m-1046 -134 c18 -14 24 -32 28 -75
l4 -57 -76 0 -76 0 0 52 c0 39 5 57 22 75 26 28 67 30 98 5z"/>
</g>
</svg>
